<?xml version="1.0" encoding="UTF-8" standalone="no"?>
<!-- Created with Inkscape (http://www.inkscape.org/) -->

<svg
   xmlns:dc="http://purl.org/dc/elements/1.1/"
   xmlns:cc="http://creativecommons.org/ns#"
   xmlns:rdf="http://www.w3.org/1999/02/22-rdf-syntax-ns#"
   xmlns:svg="http://www.w3.org/2000/svg"
   xmlns="http://www.w3.org/2000/svg"
   xmlns:xlink="http://www.w3.org/1999/xlink"
   xmlns:sodipodi="http://sodipodi.sourceforge.net/DTD/sodipodi-0.dtd"
   xmlns:inkscape="http://www.inkscape.org/namespaces/inkscape"
   width="50mm"
   height="50mm"
   viewBox="0 0 113 97"
   version="1.1"
   id="svg4079"
   inkscape:version="0.92.3 (2405546, 2018-03-11)"
   sodipodi:docname="logo_small.svg">
  <defs
     id="defs4073">
    <inkscape:path-effect
       effect="spiro"
       id="path-effect5729"
       is_visible="true" />
    <inkscape:path-effect
       effect="spiro"
       id="path-effect5693"
       is_visible="true" />
    <inkscape:path-effect
       effect="spiro"
       id="path-effect5664"
       is_visible="true" />
    <inkscape:path-effect
       effect="spiro"
       id="path-effect5619"
       is_visible="true" />
    <inkscape:path-effect
       effect="spiro"
       id="path-effect5578"
       is_visible="true" />
    <inkscape:path-effect
       effect="spiro"
       id="path-effect5574"
       is_visible="true" />
    <inkscape:path-effect
       effect="spiro"
       id="path-effect5570"
       is_visible="true" />
    <inkscape:path-effect
       effect="bspline"
       id="path-effect5486"
       is_visible="true"
       weight="33.333333"
       steps="2"
       helper_size="0"
       apply_no_weight="true"
       apply_with_weight="true"
       only_selected="false" />
    <inkscape:path-effect
       effect="spiro"
       id="path-effect5451"
       is_visible="true" />
    <inkscape:path-effect
       effect="spiro"
       id="path-effect5427"
       is_visible="true" />
    <inkscape:path-effect
       effect="spiro"
       id="path-effect5405"
       is_visible="true" />
    <inkscape:path-effect
       effect="spiro"
       id="path-effect5401"
       is_visible="true" />
    <inkscape:path-effect
       effect="spiro"
       id="path-effect4470"
       is_visible="true" />
    <inkscape:perspective
       sodipodi:type="inkscape:persp3d"
       inkscape:vp_x="0 : 148.50011 : 1"
       inkscape:vp_y="0 : 999.99994 : 0"
       inkscape:vp_z="210.00011 : 148.50009 : 1"
       inkscape:persp3d-origin="105.00002 : 98.999991 : 1"
       id="perspective4452" />
  </defs>
  <sodipodi:namedview
     id="base"
     pagecolor="#ffffff"
     bordercolor="#666666"
     borderopacity="1.0"
     inkscape:pageopacity="0.0"
     inkscape:pageshadow="2"
     inkscape:zoom="0.49497475"
     inkscape:cx="-75.615169"
     inkscape:cy="453.23364"
     inkscape:document-units="mm"
     inkscape:current-layer="layer1"
     showgrid="false"
     inkscape:object-paths="true"
     inkscape:lockguides="true"
     showguides="false"
     inkscape:window-width="1366"
     inkscape:window-height="705"
     inkscape:window-x="-8"
     inkscape:window-y="-8"
     inkscape:window-maximized="1" />
  <metadata
     id="metadata4076">
    <rdf:RDF>
      <cc:Work
         rdf:about="">
        <dc:format>image/svg+xml</dc:format>
        <dc:type
           rdf:resource="http://purl.org/dc/dcmitype/StillImage" />
        <dc:title></dc:title>
      </cc:Work>
    </rdf:RDF>
  </metadata>
  <g
     inkscape:label="Layer 1"
     inkscape:groupmode="layer"
     id="layer1"
     transform="translate(0,-200)">
    <rect
       style="fill:#000000;stroke-width:0.18060836"
       id="rect4081"
       width="22.325188"
       height="12.297833"
       x="77.356888"
       y="230.0123"
       ry="3.458766" />
    <ellipse
       style="fill:#ffffff;stroke-width:0.18060836"
       id="path4085"
       cx="93.471313"
       cy="236.32092"
       rx="4.3643227"
       ry="3.9129474" />
    <ellipse
       style="fill:#000000;stroke-width:0.18060836"
       id="path4087"
       cx="93.555229"
       cy="236.40079"
       rx="3.2732425"
       ry="3.0345299" />
    <rect
       style="fill:#f9f9f9;stroke-width:0.18060836"
       id="rect4089"
       width="4.5321813"
       height="1.5971211"
       x="80.546188"
       y="232.08856"
       ry="0" />
    <rect
       style="fill:#000000;stroke-width:0.18060836"
       id="rect4089-1"
       width="4.5321813"
       height="2.2359695"
       x="80.512634"
       y="228.31934"
       ry="1.1179848" />
    <path
       style="fill:#000000;stroke-width:0.18060836"
       d="m 74.161904,225.88611 c 0.32997,11.20036 -14.030741,18.85178 -24.025584,13.7131 -8.752763,-3.88762 -12.245292,-16.16704 -5.513869,-23.26398 6.99475,-8.22843 22.354766,-7.30093 27.579203,2.32757 1.26338,2.19931 1.96336,4.70559 1.96025,7.22331 z"
       id="path4106"
       inkscape:connector-curvature="0" />
    <ellipse
       style="fill:#000000;stroke-width:0.18060836"
       id="path4108"
       cx="57.877644"
       cy="256.8078"
       rx="15.758963"
       ry="23.317993" />
    <path
       style="fill:#000000;stroke-width:0.18060836"
       id="path4141"
       sodipodi:type="arc"
       sodipodi:cx="28.278866"
       sodipodi:cy="240.04256"
       sodipodi:rx="19.643673"
       sodipodi:ry="15.206417"
       sodipodi:start="0.23230158"
       sodipodi:end="0.68997145"
       d="m 47.394892,243.54335 a 19.643673,15.206417 0 0 1 -3.965565,6.17832 l -15.150461,-9.67911 z" />
    <path
       style="fill:#000000;stroke-width:0.18273832"
       id="path4141-6"
       sodipodi:type="arc"
       sodipodi:cx="173.99864"
       sodipodi:cy="-225.64217"
       sodipodi:rx="18.430613"
       sodipodi:ry="16.118471"
       sodipodi:start="0.23230158"
       sodipodi:end="0.68997145"
       d="m 191.93419,-221.93141 a 18.430613,16.118471 0 0 1 -3.72068,6.5489 l -14.21487,-10.25966 z"
       inkscape:transform-center-x="-21.66076"
       inkscape:transform-center-y="-21.306229"
       transform="matrix(-0.64876262,0.76099084,-0.88221694,-0.47084315,0,0)" />
    <rect
       style="fill:#ffd42a;stroke-width:0.18060836"
       id="rect4114-4-4"
       width="19.830029"
       height="4.1820312"
       x="36.734364"
       y="277.03357"
       ry="2.0910156" />
    <path
       style="fill:#ff0000;stroke-width:0.18060836"
       d="m 46.571715,236.79295 c 3.390189,1.66725 7.280446,1.80997 11.001825,2.04266 3.497564,0.15605 7.01145,-0.005 10.499153,0.31679 0.482152,-0.001 1.381366,0.46991 0.348332,0.40721 -5.600434,0.45243 -11.188186,2.02121 -16.834795,1.19428 -2.416786,-0.3611 -4.763576,-1.30775 -6.631087,-2.84663 3.148206,-1.61741 6.885518,-1.33047 10.259519,-0.65021 4.125696,0.78384 8.332089,2.1006 12.57126,1.31946 0.476349,-0.0682 2.092481,-0.64575 0.943916,0.13454 -2.227116,1.51267 -5.018983,1.87607 -7.656524,2.1944 -3.510336,0.35489 -7.102967,0.2882 -10.538109,-0.55199 -1.345852,0.13932 -1.474775,-1.8719 -0.246226,-2.13229 1.632407,-0.68882 3.469644,-0.44473 5.197806,-0.40818 3.837007,0.26775 7.678468,1.04965 11.533528,0.55427 0.467893,-0.0455 1.722623,-0.25739 1.721824,-0.0812 -1.53087,0.49526 -3.084782,0.93213 -4.623893,1.39572 -3.61691,0.71065 -7.353847,0.51256 -10.993153,0.0766 -0.507015,-0.14332 -1.594785,-0.14319 -1.669576,-0.61606 0.922785,-0.13746 1.896122,0.17791 2.849607,0.12288 6.199339,0.27877 12.400645,-0.45892 18.467952,-1.64712 -3.282687,2.08696 -7.362618,2.31613 -11.178396,2.2858 -3.773155,-0.0684 -7.506298,-0.65305 -11.232828,-1.17623 7.323872,0.73261 14.662404,-0.62366 21.992384,-0.0946 -4.734125,2.36597 -10.265188,2.59738 -15.464452,1.98989 -3.982363,-0.46272 -7.886022,-1.39571 -11.742648,-2.43802 -0.181556,-0.82368 0.842878,-1.10446 1.424581,-1.39195 z"
       id="path4395"
       inkscape:connector-curvature="0" />
    <path
       style="fill:#ff0000;stroke-width:0.18060836"
       d="m 50.220449,239.57508 c 0.258595,1.93343 -0.446282,3.88938 0.01551,5.80898 0.205426,0.86163 0.775609,1.62691 1.549897,2.09799 -0.139783,0.40816 -0.675482,0.61475 -0.974609,0.2269 -0.507213,-0.45897 -0.915985,-1.15368 -1.669514,-1.24099 -0.367855,0.0176 -0.665371,-0.26985 -0.926588,-0.4914 -0.632945,-0.60847 -0.650133,-1.54791 -0.483758,-2.34142 0.211281,-1.06375 0.654749,-2.07105 0.851801,-3.13752 0.191205,-0.54062 0.817499,-0.9674 1.414327,-0.84203 0.436584,0.2517 -0.105149,0.73333 -0.343644,0.93191 -0.396114,0.38418 -0.991789,0.7275 -1.559674,0.4893 -0.627746,-0.23392 -0.88708,-1.13796 -0.346792,-1.58301 0.309026,-0.23172 0.776704,-0.43297 1.156581,-0.27358 0.343822,0.13645 0.896995,0.48535 0.571296,0.8888 -0.267762,0.26756 -0.721107,0.41626 -1.087295,0.26657 -0.318005,-0.30398 0.09039,-0.74469 0.337437,-0.97129 0.552938,-0.43337 1.454325,-0.59211 2.009553,-0.0785 0.528028,0.4685 0.423656,1.29098 0.01042,1.7965 -0.23667,0.23855 -0.389658,0.52837 -0.455626,0.8542 -0.271034,0.97911 0.135161,2.02779 0.852954,2.73402 0.570742,0.57962 1.299459,1.01194 2.088513,1.25336 0.228964,0.78642 -0.07306,1.67523 -0.748688,2.16957 -1.030971,0.77612 -2.568628,0.93405 -3.714227,0.30141 -0.759714,-0.41383 -1.135258,-1.28231 -1.076951,-2.10091 -0.01343,-1.55633 -0.297724,-3.15596 0.169902,-4.67731 0.251663,-0.85133 0.927842,-1.57951 1.809516,-1.85183 0.197111,-0.0458 0.369386,-0.1446 0.54968,-0.22969 z"
       id="path4414"
       inkscape:connector-curvature="0" />
    <rect
       style="fill:#ffd42a;stroke-width:0.18060836"
       id="rect4114-4-4-2"
       width="19.830029"
       height="4.1820312"
       x="60.123295"
       y="276.76749"
       ry="2.0910156" />
    <path
       style="fill:#ffffff;stroke-width:0.18060836"
       id="path4472"
       sodipodi:type="arc"
       sodipodi:cx="58.152859"
       sodipodi:cy="260.4957"
       sodipodi:rx="9.7054577"
       sodipodi:ry="14.560956"
       sodipodi:start="0.69252363"
       sodipodi:end="0.68997229"
       d="m 65.62254,269.7926 a 9.7054577,14.560956 0 0 1 -13.661671,1.91568 9.7054577,14.560956 0 0 1 -1.28559,-20.49518 9.7054577,14.560956 0 0 1 13.66003,-1.94183 9.7054577,14.560956 0 0 1 1.303016,20.49271 l -7.485466,-9.26828 z" />
    <path
       sodipodi:type="star"
       style="fill:#ffccaa;stroke-width:1.17726851"
       id="path4486"
       sodipodi:sides="5"
       sodipodi:cx="143.25298"
       sodipodi:cy="33.172619"
       sodipodi:r1="24.972185"
       sodipodi:r2="4.2520528"
       sodipodi:arg1="0.88187195"
       sodipodi:arg2="1.5101905"
       inkscape:flatsided="false"
       inkscape:rounded="2.57913"
       inkscape:randomized="0"
       d="m 159.12797,52.449404 c -43.15645,35.54061 40.1871,-18.418768 -15.61745,-15.032539 -55.804557,3.386229 33.452,46.872207 -13.68521,16.810629 C 82.6881,24.165916 159.76109,86.755982 139.29604,34.7291 118.83099,-17.297783 105.05516,81.02815 119.07922,26.908463 133.10328,-27.211225 97.393457,65.430942 140.54991,29.890331 183.70637,-5.6502803 85.935887,11.63251 141.74044,8.246282 197.545,4.8600538 98.402117,-0.47400464 145.53933,29.587573 c 47.1372,30.061577 0.48755,-57.583004 20.9526,-5.556121 20.46505,52.026883 -5.09879,-43.911913 -19.12285,10.207775 -14.02406,54.119687 54.91535,-17.330433 11.75889,18.210177 z"
       inkscape:transform-center-x="-0.4031113"
       inkscape:transform-center-y="-0.11977075"
       transform="matrix(0.15888586,0,0,0.14812875,22.253345,207.06076)" />
    <path
       style="fill:#ffdd55;stroke-width:0.18060836"
       id="path4488"
       sodipodi:type="arc"
       sodipodi:cx="57.24728"
       sodipodi:cy="233.43912"
       sodipodi:rx="6.040936"
       sodipodi:ry="1.140554"
       sodipodi:start="0.69252396"
       sodipodi:end="0.68997229"
       d="m 61.896608,234.16734 a 6.040936,1.140554 0 0 1 -8.503389,0.15005 6.040936,1.140554 0 0 1 -0.800184,-1.60537 6.040936,1.140554 0 0 1 8.502368,-0.15211 6.040936,1.140554 0 0 1 0.811031,1.60519 l -4.659154,-0.72598 z" />
    <path
       style="fill:#f9f9f9;stroke-width:0.18060836"
       id="path4490"
       sodipodi:type="arc"
       sodipodi:cx="52.362003"
       sodipodi:cy="224.51746"
       sodipodi:rx="2.6264937"
       sodipodi:ry="4.0553026"
       sodipodi:start="0.69252396"
       sodipodi:end="0.68997229"
       d="m 54.38345,227.10669 a 2.6264937,4.0553026 0 0 1 -3.697125,0.53353 2.6264937,4.0553026 0 0 1 -0.347906,-5.70802 2.6264937,4.0553026 0 0 1 3.696681,-0.5408 2.6264937,4.0553026 0 0 1 0.352622,5.70732 l -2.025719,-2.58126 z" />
    <path
       style="fill:#f9f9f9;stroke-width:0.18060836"
       id="path4490-2"
       sodipodi:type="arc"
       sodipodi:cx="62.605335"
       sodipodi:cy="224.66953"
       sodipodi:rx="2.6264937"
       sodipodi:ry="4.0553026"
       sodipodi:start="0.69252396"
       sodipodi:end="0.68997229"
       d="m 64.626782,227.25876 a 2.6264937,4.0553026 0 0 1 -3.697125,0.53353 2.6264937,4.0553026 0 0 1 -0.347906,-5.70802 2.6264937,4.0553026 0 0 1 3.696681,-0.54081 2.6264937,4.0553026 0 0 1 0.352622,5.70733 l -2.025719,-2.58126 z" />
    <path
       style="fill:#000000;stroke-width:0.18060836"
       id="path4522"
       sodipodi:type="arc"
       sodipodi:cx="53.46513"
       sodipodi:cy="224.87228"
       sodipodi:rx="1.0107234"
       sodipodi:ry="1.6978651"
       sodipodi:start="0.69252396"
       sodipodi:end="0.68997229"
       d="m 54.24302,225.95634 a 1.0107234,1.6978651 0 0 1 -1.422722,0.22337 1.0107234,1.6978651 0 0 1 -0.133881,-2.38981 1.0107234,1.6978651 0 0 1 1.422551,-0.22643 1.0107234,1.6978651 0 0 1 0.135696,2.38953 l -0.779534,-1.08072 z" />
    <path
       style="fill:#000000;stroke-width:0.18060836"
       id="path4526"
       d="m 60.432124,225.84141 c -6.95e-4,-0.3454 0.04343,-0.68409 0.131847,-1.01515 0.05983,-0.25676 0.171539,-0.49299 0.285097,-0.72582 0.116719,-0.22155 0.267349,-0.42587 0.460923,-0.57267 0.874031,-0.55818 0.877249,-0.64604 1.647145,-0.57979 0.267655,0.0336 0.399599,0.23849 0.508613,0.4836 0.08892,0.26134 0.07246,0.53007 0.03071,0.79852 -0.02411,0.18734 -0.08518,0.36576 -0.148107,0.54124 -0.04732,0.14824 -0.108145,0.2884 -0.144327,0.44052 0,0 -0.894433,0.46747 -0.894433,0.46747 v 0 c 0.02634,-0.16158 0.08004,-0.30299 0.135418,-0.45401 0.05934,-0.172 0.130527,-0.34256 0.158496,-0.5244 0.04378,-0.24844 0.07926,-0.49391 0.0021,-0.74107 -0.09847,-0.22006 -0.215066,-0.37459 -0.454704,-0.38799 -0.122397,-0.01 -0.246121,-0.0217 -0.368927,-0.0125 -0.38024,0.0287 -0.840066,0.38534 0.453974,-0.41684 -0.209035,0.10843 -0.357677,0.31201 -0.482826,0.51951 -0.11658,0.22555 -0.229082,0.4586 -0.295951,0.7074 -0.0943,0.31907 -0.156897,0.64444 -0.136204,0.98214 0,0 -0.888582,0.4898 -0.888582,0.4898 z"
       inkscape:connector-curvature="0" />
    <path
       style="fill:none;stroke:#000000;stroke-width:0.18060836px;stroke-linecap:butt;stroke-linejoin:miter;stroke-opacity:1"
       d="m 33.808464,259.35847 c -0.511701,1.12581 -1.945737,1.52193 -3.122548,1.35173 -1.81773,0.0957 -3.823289,0.0286 -5.314131,-1.11124 -1.512882,-1.02303 -2.523022,-2.88463 -2.155861,-4.67644 0.315103,-0.84032 1.390299,-0.95228 2.183241,-0.8414 0.791497,-0.0713 1.955765,-0.13422 2.191339,0.8161 0.435138,1.22488 0.09473,2.82177 -1.133486,3.50288 -1.079222,0.63389 -2.395383,0.63337 -3.617681,0.63186 -1.608934,-0.0645 -3.225822,-0.83138 -4.128485,-2.13485 -0.636327,-0.94051 -0.47885,-2.11213 -0.491284,-3.17696 0.0557,-0.78446 0.009,-1.57874 0.08986,-2.3577 0.162882,-0.72194 0.58342,-1.39661 1.201709,-1.84019"
       id="path5733"
       inkscape:connector-curvature="0" />
    <flowRoot
       xml:space="preserve"
       id="flowRoot49"
       style="font-style:normal;font-weight:normal;font-size:40px;line-height:1.25;font-family:sans-serif;letter-spacing:0px;word-spacing:0px;fill:#000000;fill-opacity:1;stroke:none"><flowRegion
         id="flowRegion51"><rect
           id="rect53"
           width="513.15747"
           height="149.50258"
           x="145.46196"
           y="96.204704" /></flowRegion><flowPara
         id="flowPara55" /></flowRoot>    <text
       xml:space="preserve"
       style="font-style:normal;font-weight:normal;font-size:10.58333302px;line-height:1.25;font-family:sans-serif;letter-spacing:0px;word-spacing:0px;fill:#000000;fill-opacity:1;stroke:none;stroke-width:0.26458332"
       id="text59"
       transform="matrix(0.68846915,-0.09090039,0.09419738,0.66437218,-35.961574,83.614559)"><textPath
         xlink:href="#path63"
         id="textPath76"><tspan
   style="stroke-width:0.26458332"
   id="tspan57">Lu&amp;Yue Photo Gallery</tspan></textPath></text>
    <path
       style="fill:none;stroke:#000000;stroke-width:0.26458332px;stroke-linecap:butt;stroke-linejoin:miter;stroke-opacity:1"
       d="m 44.366742,301.27631 c 2.352807,9.22185 11.273669,14.17476 18.852968,18.69829 5.677078,3.87909 12.049007,6.95407 18.978404,7.58773 11.057809,1.61972 22.330066,1.30914 33.415186,0.17974 9.05939,-1.37932 18.27399,-4.23384 25.18216,-10.50728 3.29014,-2.98616 7.49322,-4.88693 10.35112,-8.32347 1.69449,-2.16984 2.77459,-4.86353 2.80071,-7.63501"
       id="path63"
       inkscape:connector-curvature="0" />
  </g>
</svg>
